<svg width="24" height="24" viewBox="0 0 24 24" fill="none" xmlns="http://www.w3.org/2000/svg">
<path fill-rule="evenodd" clip-rule="evenodd" d="M7.74446 12C7.74425 12.3382 7.87315 12.6764 8.13115 12.9344C8.14426 12.9475 8.15758 12.9603 8.1711 12.9727L12.1657 16.9673C12.6813 17.4829 13.5172 17.4829 14.0328 16.9673C14.5484 16.4517 14.5484 15.6157 14.0328 15.1002L10.9327 12L14.0328 8.89985C14.5484 8.38425 14.5484 7.5483 14.0328 7.03271C13.5172 6.51711 12.6813 6.51711 12.1657 7.03271L8.1711 11.0273C8.15758 11.0397 8.14426 11.0525 8.13115 11.0656C7.87315 11.3236 7.74425 11.6618 7.74446 12Z" fill="black"/>
</svg>
