<svg width="24" height="24" viewBox="0 0 24 24" fill="none" xmlns="http://www.w3.org/2000/svg">
<path fill-rule="evenodd" clip-rule="evenodd" d="M4.40456 4.40451C3.86525 4.94382 3.86525 5.81821 4.40456 6.35752L10.047 11.9999L4.40448 17.6424C3.86517 18.1817 3.86517 19.0561 4.40448 19.5954C4.94379 20.1347 5.81819 20.1347 6.3575 19.5954L12.9765 12.9764C13.5158 12.4371 13.5158 11.5627 12.9765 11.0234L6.35758 4.40451C5.81827 3.8652 4.94387 3.8652 4.40456 4.40451Z" fill="#828AA6"/>
<path fill-rule="evenodd" clip-rule="evenodd" d="M19.5954 4.40448C20.1347 4.94379 20.1347 5.81819 19.5954 6.3575L13.953 11.9999L19.5955 17.6423C20.1348 18.1816 20.1348 19.056 19.5955 19.5953C19.0562 20.1347 18.1818 20.1347 17.6425 19.5953L11.0235 12.9764C10.4842 12.4371 10.4842 11.5627 11.0235 11.0234L17.6424 4.40448C18.1817 3.86517 19.0561 3.86517 19.5954 4.40448Z" fill="#828AA6"/>
</svg>
