<svg width="24" height="24" viewBox="0 0 24 24" fill="none" xmlns="http://www.w3.org/2000/svg">
<path fill-rule="evenodd" clip-rule="evenodd" d="M11.4594 4.15882C11.7888 3.94706 12.2115 3.94706 12.5409 4.15882L16.0001 6.38262V4H18.0001V7.66833L19.5409 8.65882C20.0054 8.95747 20.14 9.57619 19.8413 10.0408C19.5426 10.5053 18.9239 10.6398 18.4594 10.3412L12.0001 6.18881L5.54088 10.3412C5.07631 10.6398 4.4576 10.5053 4.15894 10.0408C3.86029 9.57619 3.99479 8.95747 4.45936 8.65882L11.4594 4.15882ZM11.9998 8L17.5629 11.6398C17.8368 11.819 17.9997 12.1104 17.9998 12.4213L17.9999 19.9999L14.062 19.9999V16.9566C14.062 16.4283 13.6002 16 13.0307 16H10.9682C10.3986 16 9.93694 16.4283 9.93694 16.9566L9.93694 20L6 20L6.00004 12.4213C6.00001 12.1104 6.16294 11.8188 6.43688 11.6396L11.9998 8Z" fill="white"/>
</svg>
